# xmcd
#
# Track frame offsets:
#	150
#	14156
#	35702
#	50394
#	65920
#	80842
#	95552
#	110123
#	126663
#	140172
#	154287
#	176579
#	185212
#	199332
#	213033
#	229624
#	240505
#	255934
#	268022
#	279710
#	293656
#	302862
#
# Disc length: 4229
#
# Revision: 2
# Processed by: cddbd v1.5.1PL0 Copyright (c) Steve Scherf et al.
# Submitted via: CDex 1.50
# Normalized: r1:TDELIM( - )
#
DISCID=62108316
DTITLE=Various Artist - Just Call it Southern
DYEAR=1998
DGENRE=Southern Gospel
TTITLE0=He'd Still Been God - Greater Vision
TTITLE1=Healing - Cathedrals
TTITLE2=I Go To The Rock - Hoppers
TTITLE3=Two Shoes - Inspirations
TTITLE4=Get Away Jordon - Dove Brothers Quartet
TTITLE5=Let's Celebrate Jesus - Bishops
TTITLE6=Anchored In The Rock - Kingdom Heirs
TTITLE7=Thread Of Hope - Jeff and Sheri Easter
TTITLE8=Had A Little Talk With Jesus - Booth Brothers
TTITLE9=Angels Everywhere - Greenes
TTITLE10=You're Not Alone - Kingsmen
TTITLE11=You'd Better Run - Legacy Five
TTITLE12=Just A Little Talk With Jesus - Kingdom Heirs
TTITLE13=Love Lifted Me - Ivan Parker
TTITLE14=In The Garden - Hoppers
TTITLE15=Take A Moment And Live - Greater Vision
TTITLE16=Come Unto Me - Bishops
TTITLE17=Beyond The Sunset - Gold City
TTITLE18=This World Is Not My Home - Crabb Family
TTITLE19=When They Ring Those Golden Bells - Florida Boys
TTITLE20=Nothing But The Blood - McKameys
TTITLE21=Jesus Loves Me - Amy Lambert
EXTD=YEAR: 1998
EXTT0=
EXTT1=
EXTT2=
EXTT3=
EXTT4=
EXTT5=
EXTT6=
EXTT7=
EXTT8=
EXTT9=
EXTT10=
EXTT11=
EXTT12=
EXTT13=
EXTT14=
EXTT15=
EXTT16=
EXTT17=
EXTT18=
EXTT19=
EXTT20=
EXTT21=
PLAYORDER=
